<svg width="84" height="84" viewBox="0 0 84 84" fill="none" xmlns="http://www.w3.org/2000/svg">
<path d="M38.8499 14.8763C33.8011 15.4488 29.0124 17.4198 25.0235 20.5673L28.4759 24.0239C29.0323 24.621 29.3352 25.4108 29.3208 26.2269C29.3064 27.043 28.9759 27.8216 28.3987 28.3987C27.8216 28.9759 27.043 29.3064 26.2269 29.3208C25.4108 29.3352 24.621 29.0323 24.0239 28.4759L20.5547 25.0109C17.6062 28.7092 15.6878 33.1213 14.9939 37.7999H22.0499C22.8853 37.7999 23.6866 38.1318 24.2773 38.7225C24.868 39.3133 25.1999 40.1145 25.1999 40.9499C25.1999 41.7853 24.868 42.5866 24.2773 43.1773C23.6866 43.768 22.8853 44.0999 22.0499 44.0999H14.8049C15.4588 50.8405 18.5395 57.1139 23.4737 61.7525C24.0688 62.3273 24.4139 63.1132 24.4343 63.9404C24.4547 64.7675 24.1489 65.5695 23.5829 66.173C23.0169 66.7765 22.2362 67.1331 21.4094 67.1657C20.5827 67.1983 19.7763 66.9044 19.1645 66.3473C12.6965 60.2867 8.3999 51.3491 8.3999 41.7605C8.3999 23.3141 23.4653 8.3999 41.9999 8.3999C60.5345 8.3999 75.5999 23.3099 75.5999 41.7605C75.5916 46.364 74.6468 50.9178 72.8229 55.1446C70.9991 59.3714 68.3343 63.1829 64.9907 66.3473C64.3789 66.9044 63.5725 67.1983 62.7458 67.1657C61.919 67.1331 61.1383 66.7765 60.5723 66.173C60.0063 65.5695 59.7005 64.7675 59.7209 63.9404C59.7413 63.1132 60.0864 62.3273 60.6815 61.7525C65.5814 57.1061 68.6112 50.8269 69.1991 44.0999H61.9499C61.1145 44.0999 60.3133 43.768 59.7225 43.1773C59.1318 42.5866 58.7999 41.7853 58.7999 40.9499C58.7999 40.1145 59.1318 39.3133 59.7225 38.7225C60.3133 38.1318 61.1145 37.7999 61.9499 37.7999H69.0059C67.2251 25.7627 57.4433 16.2749 45.1499 14.8763V19.9499C45.1499 20.7853 44.818 21.5866 44.2273 22.1773C43.6366 22.768 42.8353 23.0999 41.9999 23.0999C41.1645 23.0999 40.3633 22.768 39.7725 22.1773C39.1818 21.5866 38.8499 20.7853 38.8499 19.9499V14.8763ZM56.4857 24.3893C56.8674 24.0862 57.3426 23.9253 57.8299 23.9341C58.3172 23.943 58.7863 24.121 59.1567 24.4378C59.5271 24.7546 59.7757 25.1903 59.8601 25.6704C59.9444 26.1504 59.8591 26.6448 59.6189 27.0689L59.1569 27.8921C57.4679 30.8745 55.7683 33.851 54.0581 36.8213C52.6909 39.1982 51.3048 41.5643 49.9001 43.9193C49.3737 44.8053 48.836 45.6846 48.2873 46.5569C47.8673 47.2163 47.4557 47.8421 47.1533 48.1949C46.0684 49.4659 44.523 50.2538 42.8571 50.3853C41.1912 50.5169 39.5413 49.9813 38.2703 48.8963C36.9993 47.8114 36.2114 46.266 36.0799 44.6001C35.9483 42.9342 36.484 41.2843 37.5689 40.0133C37.8713 39.6605 38.4215 39.1523 39.0095 38.6357C39.6395 38.0771 40.4501 37.3925 41.3615 36.6239C43.1927 35.0951 45.4859 33.2219 47.7203 31.4159C50.3854 29.26 53.0594 27.1152 55.7423 24.9815L56.4857 24.3935V24.3893Z" fill="#3B3E42" fill-opacity="0.85"/>
</svg>
