<svg width="78" height="50" viewBox="0 0 78 50" fill="none" xmlns="http://www.w3.org/2000/svg">
<path d="M60 4H11C7.13401 4 4 7.13401 4 11V39C4 42.866 7.13401 46 11 46H60C63.866 46 67 42.866 67 39V11C67 7.13401 63.866 4 60 4Z" stroke="#3B3E42" stroke-opacity="0.85" stroke-width="7.08333" stroke-linecap="round" stroke-linejoin="round"/>
<path d="M21.5 18V32V18ZM35.5 18V32V18ZM49.5 18V32V18ZM67 18H72.25C72.7141 18 73.1592 18.1844 73.4874 18.5126C73.8156 18.8408 74 19.2859 74 19.75V30.25C74 30.7141 73.8156 31.1592 73.4874 31.4874C73.1592 31.8156 72.7141 32 72.25 32H67V18Z" stroke="#3B3E42" stroke-opacity="0.85" stroke-width="7.08333" stroke-linecap="round" stroke-linejoin="round"/>
</svg>
