<svg width="84" height="84" viewBox="0 0 84 84" fill="none" xmlns="http://www.w3.org/2000/svg">
<path d="M20.9999 66.5H62.9999L58.0124 31.5H25.9874L20.9999 66.5ZM41.9999 24.5C42.9916 24.5 43.8234 24.1652 44.4954 23.4955C45.1651 22.8235 45.4999 21.9917 45.4999 21C45.4999 20.0083 45.1651 19.1765 44.4954 18.5045C43.8234 17.8348 42.9916 17.5 41.9999 17.5C41.0083 17.5 40.1776 17.8348 39.5079 18.5045C38.8359 19.1765 38.4999 20.0083 38.4999 21C38.4999 21.9917 38.8359 22.8235 39.5079 23.4955C40.1776 24.1652 41.0083 24.5 41.9999 24.5ZM51.8874 24.5H58.0124C59.7624 24.5 61.2791 25.0833 62.5624 26.25C63.8458 27.4167 64.6333 28.8458 64.9249 30.5375L69.9124 65.5375C70.2041 67.6375 69.6651 69.489 68.2954 71.092C66.9234 72.6973 65.1583 73.5 62.9999 73.5H20.9999C18.8416 73.5 17.0776 72.6973 15.7079 71.092C14.3359 69.489 13.7958 67.6375 14.0874 65.5375L19.0749 30.5375C19.3666 28.8458 20.1541 27.4167 21.4374 26.25C22.7208 25.0833 24.2374 24.5 25.9874 24.5H32.1124C31.9374 23.9167 31.7916 23.3473 31.6749 22.792C31.5583 22.239 31.4999 21.6417 31.4999 21C31.4999 18.0833 32.5208 15.6042 34.5624 13.5625C36.6041 11.5208 39.0833 10.5 41.9999 10.5C44.9166 10.5 47.3958 11.5208 49.4374 13.5625C51.4791 15.6042 52.4999 18.0833 52.4999 21C52.4999 21.6417 52.4416 22.239 52.3249 22.792C52.2083 23.3473 52.0624 23.9167 51.8874 24.5ZM20.9999 66.5H62.9999H20.9999Z" fill="#3B3E42" fill-opacity="0.85"/>
</svg>
