<svg width="119" height="13" viewBox="0 0 119 13" fill="none" xmlns="http://www.w3.org/2000/svg">
<g clip-path="url(#clip0_9_4)">
<path d="M0 0.0347953C0.153704 0.617586 0.460663 1.14859 0.888986 1.57263C1.31731 1.99666 1.85137 2.29827 2.43567 2.44611H6.2388L6.43365 2.52266V12.1192H8.80669V2.53658L9.02243 2.46003H12.829C13.4114 2.30822 13.9434 2.00527 14.3711 1.58185C14.7988 1.15842 15.107 0.629541 15.2647 0.0487134V0.0243567H0V0.0347953ZM83.0251 0.0208772H80.659V12.147H91.4943C92.0076 11.9484 92.4644 11.6269 92.8247 11.2108C93.1851 10.7946 93.4379 10.2966 93.5611 9.76009H83.0182L83.0251 0.0208772ZM64.8167 2.40784C66.0763 2.05988 67.1341 1.07865 67.3881 0.0139181L54.1311 0.0347953V7.18523H64.9768V9.70094H56.4658C55.817 9.86912 55.2113 10.1732 54.6888 10.5931C54.1663 11.013 53.739 11.5391 53.4352 12.1366H67.315V4.80523H56.4728V2.40784H64.8167ZM105.238 12.1401H107.591V7.26178H116.143V12.1401H118.492V4.82611L105.238 4.81219V12.1401ZM29.6978 2.43567H38.7446C39.3372 2.2931 39.8794 1.99058 40.3119 1.56109C40.7445 1.13161 41.0509 0.591624 41.1977 0L27.2447 0C27.3929 0.59094 27.6998 1.13016 28.1321 1.55942C28.5644 1.98869 29.1058 2.29168 29.6978 2.43567ZM29.6978 7.22699H38.7446C39.3369 7.0837 39.8787 6.78095 40.3111 6.35157C40.7436 5.9222 41.0502 5.3826 41.1977 4.79132H27.2447C27.3936 5.38192 27.7007 5.92076 28.1329 6.34991C28.5651 6.77906 29.1062 7.08229 29.6978 7.22699ZM29.6978 12.147H38.7446C39.3369 12.0038 39.8787 11.701 40.3111 11.2716C40.7436 10.8423 41.0502 10.3027 41.1977 9.71137H27.2447C27.3933 10.3021 27.7002 10.8412 28.1325 11.2704C28.5648 11.6996 29.106 12.0027 29.6978 12.147ZM107.33 2.44263H116.376C116.97 2.30026 117.512 1.99788 117.945 1.56841C118.379 1.13894 118.686 0.598847 118.833 0.00695906H104.877C105.024 0.598241 105.331 1.13784 105.763 1.56722C106.196 1.99659 106.737 2.29935 107.33 2.44263Z" fill="black"/>
</g>
<defs>
<clipPath id="clip0_9_4">
<rect width="119" height="12.1784" fill="white"/>
</clipPath>
</defs>
</svg>
